<?xml version="1.0" encoding="utf-8"?>
<!-- Generator: Adobe Illustrator 21.1.0, SVG Export Plug-In . SVG Version: 6.00 Build 0)  -->
<svg version="1.1" id="图层_1" xmlns="http://www.w3.org/2000/svg" xmlns:xlink="http://www.w3.org/1999/xlink" x="0px" y="0px"
	 viewBox="0 0 200 200" style="enable-background:new 0 0 200 200;" xml:space="preserve">
<g>
	<path d="M121.2,185.8L121.2,185.8c-3.6,1.3-7.6-0.7-8.9-4.3L85,102.8c-1.3-3.6,0.7-7.6,4.3-8.9l0,0c3.6-1.3,7.6,0.7,8.9,4.3
		l27.2,78.7C126.8,180.5,124.8,184.5,121.2,185.8z"/>
	<path d="M89.2,106.1L89.2,106.1c-3.6-1.3-5.6-5.3-4.3-8.9l27.4-78.6c1.3-3.6,5.3-5.6,8.9-4.3l0,0c3.6,1.3,5.6,5.3,4.3,8.9
		l-27.4,78.6C96.9,105.4,92.9,107.3,89.2,106.1z"/>
</g>
</svg>
